<svg width="52" height="52" viewBox="0 0 52 52" fill="none" xmlns="http://www.w3.org/2000/svg">
<rect width="52" height="52" rx="13" fill="url(#paint0_linear_88_54707)"/>
<path opacity="0.4" d="M26.067 13C29.1507 13 31.5573 13 33.4327 13.2269C35.3411 13.4578 36.8515 13.9381 38.0471 15.0141C39.2577 16.1036 39.8119 17.5033 40.0757 19.2686C40.3307 20.9763 40.3307 23.3257 40.3307 26.0833C40.3307 28.8411 40.3307 31.0237 40.0757 32.7313C39.8119 34.4967 39.2577 35.8964 38.0471 36.986C36.8515 38.0619 35.3411 38.5421 33.4327 38.7731C31.5573 39 29.1507 39 26.067 39C22.9832 39 20.4376 39 18.5621 38.7731C16.6537 38.5421 15.1432 38.0619 13.9477 36.986C12.7371 35.8964 12.1828 34.4967 11.9191 32.7313C11.664 31.0237 11.664 28.8411 11.6641 26.0833C11.664 23.3256 11.664 20.9763 11.9191 19.2686C12.1828 17.5033 12.7371 16.1036 13.9477 15.0141C15.1432 13.9381 16.6537 13.4578 18.5621 13.2269C20.4376 13 22.9832 13 26.067 13Z" fill="white"/>
<path d="M21.2557 19.666C21.7102 19.666 22.1457 19.6659 22.5037 19.714C22.905 19.768 23.3551 19.8984 23.728 20.2713C24.1011 20.6443 24.2315 21.0943 24.2853 21.4957C24.3335 21.8537 24.3335 22.2892 24.3333 22.7437V23.9216C24.3335 24.3762 24.3335 24.8118 24.2853 25.1698C24.2315 25.5711 24.1011 26.0211 23.728 26.394C23.3551 26.7671 22.905 26.8975 22.5037 26.9514C22.1457 26.9995 21.7102 26.9995 21.2557 26.9994H20.0777C19.6232 26.9995 19.1877 26.9995 18.8297 26.9514C18.4283 26.8975 17.9783 26.7671 17.6053 26.394C17.2324 26.0211 17.102 25.5711 17.048 25.1698C16.9999 24.8118 16.9999 24.3762 17 23.9216V22.7437C16.9999 22.2892 16.9999 21.8537 17.048 21.4957C17.102 21.0943 17.2324 20.6443 17.6053 20.2713C17.9783 19.8984 18.4283 19.768 18.8297 19.714C19.1877 19.6659 19.6232 19.666 20.0777 19.666H21.2557Z" fill="white"/>
<path fill-rule="evenodd" clip-rule="evenodd" d="M17 31.334C17 30.7817 17.4477 30.334 18 30.334H23.3333C23.8856 30.334 24.3333 30.7817 24.3333 31.334C24.3333 31.8863 23.8856 32.334 23.3333 32.334H18C17.4477 32.334 17 31.8863 17 31.334Z" fill="white"/>
<path fill-rule="evenodd" clip-rule="evenodd" d="M27.6641 20.666C27.6641 20.1137 28.1118 19.666 28.6641 19.666H33.9974C34.5497 19.666 34.9974 20.1137 34.9974 20.666C34.9974 21.2183 34.5497 21.666 33.9974 21.666H28.6641C28.1118 21.666 27.6641 21.2183 27.6641 20.666Z" fill="white"/>
<path fill-rule="evenodd" clip-rule="evenodd" d="M27.6641 26C27.6641 25.4477 28.1118 25 28.6641 25H33.9974C34.5497 25 34.9974 25.4477 34.9974 26C34.9974 26.5523 34.5497 27 33.9974 27H28.6641C28.1118 27 27.6641 26.5523 27.6641 26Z" fill="white"/>
<path fill-rule="evenodd" clip-rule="evenodd" d="M27.6641 31.334C27.6641 30.7817 28.1118 30.334 28.6641 30.334H33.9974C34.5497 30.334 34.9974 30.7817 34.9974 31.334C34.9974 31.8863 34.5497 32.334 33.9974 32.334H28.6641C28.1118 32.334 27.6641 31.8863 27.6641 31.334Z" fill="white"/>
<defs>
<linearGradient id="paint0_linear_88_54707" x1="-4.875" y1="-12.4583" x2="52" y2="62.8333" gradientUnits="userSpaceOnUse">
<stop offset="0.0550171" stop-color="#0A0FDB"/>
<stop offset="1" stop-color="#8D00A6"/>
</linearGradient>
</defs>
</svg>
