<svg width="52" height="52" viewBox="0 0 52 52" fill="none" xmlns="http://www.w3.org/2000/svg">
<rect width="52" height="52" rx="13" fill="url(#paint0_linear_88_54680)"/>
<path opacity="0.4" d="M33.0283 13.0965C34.7686 13.5601 36.1721 13.934 37.2362 14.3758C38.341 14.8343 39.2205 15.4202 39.7839 16.3907C40.3479 17.362 40.4189 18.4145 40.2655 19.5975C40.1181 20.7358 39.7418 22.1321 39.2757 23.8616L37.8733 29.0656C37.4073 30.7954 37.031 32.1916 36.5865 33.2507C36.1243 34.3515 35.5343 35.226 34.5598 35.7855C33.5861 36.3446 32.5314 36.415 31.3441 36.2628C30.2005 36.1163 28.797 35.7424 27.0569 35.2787L25.6434 34.902C23.9031 34.4384 22.4997 34.0646 21.4355 33.6228C20.3308 33.1643 19.4512 32.5783 18.8877 31.6079C18.3238 30.6366 18.2529 29.584 18.4062 28.4011C18.5537 27.2628 18.93 25.8666 19.3961 24.137L20.7984 18.9329C21.2645 17.2032 21.6407 15.8069 22.0853 14.7479C22.5474 13.6471 23.1374 12.7725 24.1119 12.213C25.0857 11.654 26.1403 11.5836 27.3277 11.7357C28.4713 11.8823 29.8747 12.2562 31.615 12.7199L33.0283 13.0965Z" fill="white"/>
<path d="M32.6641 19.334C32.6641 20.4386 31.7686 21.334 30.6641 21.334C29.5595 21.334 28.6641 20.4386 28.6641 19.334C28.6641 18.2294 29.5595 17.334 30.6641 17.334C31.7686 17.334 32.6641 18.2294 32.6641 19.334Z" fill="white"/>
<path fill-rule="evenodd" clip-rule="evenodd" d="M18.5637 17.9554C18.7726 18.6615 18.3695 19.4033 17.6634 19.6122C15.5464 20.2385 14.8923 20.6662 14.5706 21.2201C14.3651 21.5741 14.2628 22.0405 14.3799 22.9636C14.5019 23.9259 14.8297 25.1672 15.3166 26.9949L16.6664 32.0612C17.1534 33.8891 17.4867 35.1288 17.8594 36.0233C18.2169 36.8817 18.5366 37.232 18.8876 37.4335C19.2397 37.6356 19.7075 37.7363 20.6369 37.6145C21.6039 37.488 22.8519 37.1547 24.6867 36.6601L25.317 36.4904C26.0281 36.2988 26.7598 36.7199 26.9514 37.4308C27.143 38.1419 26.7219 38.8736 26.0109 39.0652L25.2902 39.2593C23.5686 39.7233 22.1479 40.1061 20.9831 40.2587C19.7604 40.4187 18.6219 40.3557 17.5599 39.7461C16.4969 39.1359 15.8709 38.1847 15.3978 37.0488C14.9476 35.9684 14.5704 34.5524 14.1139 32.8389L12.7156 27.5905C12.259 25.8768 11.8817 24.4609 11.7344 23.299C11.5794 22.0774 11.649 20.9412 12.2645 19.8812C13.1792 18.3058 14.8698 17.6578 16.9068 17.0551C17.613 16.8462 18.3548 17.2493 18.5637 17.9554Z" fill="white"/>
<defs>
<linearGradient id="paint0_linear_88_54680" x1="-4.875" y1="-12.4583" x2="52" y2="62.8333" gradientUnits="userSpaceOnUse">
<stop offset="0.0550171" stop-color="#0A0FDB"/>
<stop offset="1" stop-color="#8D00A6"/>
</linearGradient>
</defs>
</svg>
