<svg width="52" height="52" viewBox="0 0 52 52" fill="none" xmlns="http://www.w3.org/2000/svg">
<rect width="52" height="52" rx="13" fill="url(#paint0_linear_88_54737)"/>
<path opacity="0.4" d="M20.3451 13.2467C21.9346 12.4233 23.757 11.666 25.9988 11.666C28.2405 11.666 30.0636 12.4233 31.654 13.2467C32.1344 13.4955 32.5808 13.7416 33.0074 13.9768C34.0514 14.5524 34.9769 15.0626 35.9929 15.3866C36.5892 15.5768 37.1174 15.7452 37.492 15.892C37.8446 16.0301 38.2636 16.2193 38.5609 16.5497C38.8281 16.8465 38.9653 17.1797 39.0562 17.4985C39.1389 17.7878 39.2094 18.1795 39.2772 18.5553C40.9282 27.7092 37.3225 36.3819 28.5089 39.7565C27.6425 40.0883 27.0045 40.3327 26.0032 40.3327C25.0017 40.3327 24.3637 40.0883 23.4973 39.7565C14.6834 36.382 11.074 27.7096 12.7246 18.5554C12.7923 18.1797 12.8629 17.788 12.9455 17.4987C13.0364 17.18 13.1736 16.8468 13.4407 16.55C13.738 16.2196 14.157 16.0303 14.5095 15.8921C14.8841 15.7454 15.4124 15.5768 16.0088 15.3865C17.0242 15.0625 17.9488 14.5525 18.9921 13.977C19.4185 13.7418 19.8647 13.4956 20.3451 13.2467Z" fill="white"/>
<path fill-rule="evenodd" clip-rule="evenodd" d="M26.0026 32.6673C29.6845 32.6673 32.6693 29.6825 32.6693 26.0007C32.6693 22.3188 29.6845 19.334 26.0026 19.334C22.3207 19.334 19.3359 22.3188 19.3359 26.0007C19.3359 29.6825 22.3207 32.6673 26.0026 32.6673ZM29.0031 24.9436C29.5237 24.7592 29.7963 24.1877 29.6119 23.6671C29.4275 23.1465 28.8561 22.8739 28.3354 23.0583C27.6926 23.286 27.0958 23.7124 26.5907 24.1553C26.0754 24.6073 25.5977 25.1283 25.1955 25.6104C25.0006 25.844 24.8206 26.0719 24.6597 26.2832C24.5421 26.1732 24.4242 26.0801 24.3073 26.0023C24.2833 25.9863 24.2594 25.9696 24.235 25.9525C24.0441 25.8196 23.8257 25.6676 23.3359 25.6676C22.7837 25.6676 22.3359 26.1153 22.3359 26.6676C22.3359 27.1672 22.7024 27.5813 23.1811 27.6557C23.1859 27.6585 23.1915 27.662 23.1979 27.6663C23.2722 27.7159 23.5009 27.9001 23.7749 28.4481C23.9361 28.7705 24.2582 28.9812 24.6181 28.9996C24.9779 29.018 25.3202 28.8409 25.5135 28.5368C25.7306 28.2293 26.3706 27.3239 26.7313 26.8915C27.0938 26.4569 27.4985 26.0196 27.9095 25.6591C28.331 25.2895 28.7047 25.0492 29.0031 24.9436Z" fill="white"/>
<defs>
<linearGradient id="paint0_linear_88_54737" x1="-4.875" y1="-12.4583" x2="52" y2="62.8333" gradientUnits="userSpaceOnUse">
<stop offset="0.0550171" stop-color="#0A0FDB"/>
<stop offset="1" stop-color="#8D00A6"/>
</linearGradient>
</defs>
</svg>
