<svg width="256" height="40" viewBox="0 0 256 40" fill="none" xmlns="http://www.w3.org/2000/svg">
<rect width="40" height="40" rx="20" fill="#1B1530"/>
<g clip-path="url(#clip0_88_55216)">
<path d="M28.5714 14.6959C27.9286 14.9637 27.2857 15.178 26.5357 15.2316C27.2857 14.803 27.8214 14.1066 28.0893 13.303C27.3929 13.7316 26.6429 13.9994 25.8393 14.1602C25.1964 13.4637 24.2857 13.0352 23.3214 13.0352C21.3929 13.0352 19.7857 14.5887 19.7857 16.5709C19.7857 16.8387 19.8393 17.1066 19.8929 17.3744C16.9464 17.2137 14.375 15.8209 12.6071 13.678C12.2857 14.2137 12.125 14.803 12.125 15.4459C12.125 16.678 12.7679 17.7494 13.6786 18.3923C13.0893 18.3923 12.5536 18.2316 12.0714 17.9637V18.0173C12.0714 19.7316 13.3036 21.1244 14.9107 21.4459C14.5893 21.4994 14.3214 21.553 14 21.553C13.7857 21.553 13.5714 21.553 13.3571 21.4994C13.7857 22.8923 15.125 23.9102 16.625 23.9637C15.4464 24.928 13.8929 25.4637 12.2321 25.4637C11.9643 25.4637 11.6429 25.4637 11.375 25.4102C12.9821 26.3744 14.8571 26.9637 16.8393 26.9637C23.3214 26.9637 26.8571 21.6066 26.8571 16.9459C26.8571 16.7852 26.8571 16.6244 26.8571 16.5173C27.5 15.9816 28.0893 15.3923 28.5714 14.6959Z" fill="white"/>
</g>
<rect x="72" width="40" height="40" rx="20" fill="#1B1530"/>
<g clip-path="url(#clip1_88_55216)">
<path d="M91.9955 22.7118C93.4946 22.7118 94.7098 21.4965 94.7098 19.9975C94.7098 18.4984 93.4946 17.2832 91.9955 17.2832C90.4965 17.2832 89.2812 18.4984 89.2812 19.9975C89.2812 21.4965 90.4965 22.7118 91.9955 22.7118Z" fill="white"/>
<path d="M95.3905 11.8555H88.6048C85.9862 11.8555 83.8555 13.9869 83.8555 16.6061V23.3919C83.8555 26.0105 85.9869 28.1412 88.6061 28.1412H95.3919C98.0105 28.1412 100.141 26.0098 100.141 23.3905V16.6048C100.141 13.9862 98.0098 11.8555 95.3905 11.8555ZM91.9983 24.0698C89.7529 24.0698 87.9269 22.2437 87.9269 19.9983C87.9269 17.7529 89.7529 15.9269 91.9983 15.9269C94.2437 15.9269 96.0698 17.7529 96.0698 19.9983C96.0698 22.2437 94.2437 24.0698 91.9983 24.0698ZM96.7483 15.9269C96.3738 15.9269 96.0698 15.6229 96.0698 15.2483C96.0698 14.8738 96.3738 14.5698 96.7483 14.5698C97.1229 14.5698 97.4269 14.8738 97.4269 15.2483C97.4269 15.6229 97.1229 15.9269 96.7483 15.9269Z" fill="white"/>
</g>
<rect x="144" width="40" height="40" rx="20" fill="#1B1530"/>
<g clip-path="url(#clip2_88_55216)">
<path d="M172.538 13.2334C172.524 13.1701 172.494 13.1117 172.45 13.0639C172.406 13.0162 172.35 12.981 172.289 12.9618C172.063 12.9174 171.831 12.9341 171.614 13.01C171.614 13.01 156.594 18.4084 155.737 19.0063C155.551 19.1348 155.49 19.2093 155.459 19.2977C155.311 19.723 155.772 19.9105 155.772 19.9105L159.644 21.1722C159.709 21.1835 159.776 21.1794 159.84 21.1604C160.72 20.6043 168.7 15.5654 169.161 15.3961C169.233 15.3741 169.287 15.3961 169.275 15.4497C169.087 16.0957 162.196 22.2195 162.158 22.257C162.139 22.2721 162.125 22.2916 162.115 22.3136C162.106 22.3356 162.102 22.3596 162.104 22.3834L161.744 26.1607C161.744 26.1607 161.593 27.3393 162.769 26.1607C163.604 25.3255 164.404 24.6345 164.805 24.2986C166.136 25.2173 167.569 26.2336 168.187 26.7629C168.29 26.8635 168.413 26.9423 168.548 26.9944C168.683 27.0465 168.826 27.0709 168.971 27.0661C169.56 27.0436 169.721 26.3991 169.721 26.3991C169.721 26.3991 172.457 15.3875 172.549 13.9116C172.558 13.767 172.57 13.6743 172.571 13.5752C172.576 13.4602 172.565 13.3452 172.538 13.2334Z" fill="white"/>
</g>
<rect x="216" width="40" height="40" rx="20" fill="#1B1530"/>
<g clip-path="url(#clip3_88_55216)">
<path d="M234.105 28.0363V21.072H231.715V17.8577H234.105V15.613C234.105 13.1679 235.653 11.9648 237.834 11.9648C238.879 11.9648 239.777 12.0426 240.039 12.0774V14.6327L238.526 14.6334C237.34 14.6334 237.072 15.1971 237.072 16.0243V17.8577H240.286L239.215 21.072H237.072V28.0363H234.105Z" fill="white"/>
</g>
<defs>
<clipPath id="clip0_88_55216">
<rect width="17.1429" height="17.1429" fill="white" transform="translate(11.4297 11.4277)"/>
</clipPath>
<clipPath id="clip1_88_55216">
<rect width="17.1429" height="17.1429" fill="white" transform="translate(83.4297 11.4277)"/>
</clipPath>
<clipPath id="clip2_88_55216">
<rect width="17.1429" height="17.1429" fill="white" transform="translate(155.43 11.4277)"/>
</clipPath>
<clipPath id="clip3_88_55216">
<rect width="17.1429" height="17.1429" fill="white" transform="translate(227.43 11.4277)"/>
</clipPath>
</defs>
</svg>
